<?xml version="1.0" encoding="UTF-8"?>
<svg version="1.1" xmlns="http://www.w3.org/2000/svg" width="432" height="99">
<path d="M0 0 C1.23481865 -0.00810448 1.23481865 -0.00810448 2.49458313 -0.01637268 C5.21355226 -0.0288718 7.93146495 -0.01236149 10.65039062 0.00561523 C12.54081274 0.00546027 14.43123518 0.00397178 16.32165527 0.00120544 C20.2827764 -0.00017908 24.24353568 0.0123884 28.20458984 0.03515625 C33.28240962 0.06354101 38.3596281 0.06080426 43.43749237 0.04806614 C47.34085222 0.04111166 51.24407306 0.04889561 55.14741516 0.06132317 C57.01971402 0.06583991 58.89202779 0.06617252 60.764328 0.06225777 C63.38095702 0.05934781 65.99675699 0.07584188 68.61328125 0.09765625 C69.77450249 0.09090378 69.77450249 0.09090378 70.95918274 0.08401489 C73.97549002 0.1258033 76.48206869 0.37003386 79.2883606 1.5085144 C81.69051124 4.66205232 81.34591614 7.99525759 81.29248047 11.796875 C81.29627716 12.64266113 81.30007385 13.48844727 81.3039856 14.35986328 C81.31140228 17.15882307 81.2899951 19.95674754 81.26757812 22.75561523 C81.26519448 24.69709654 81.26428821 26.63858017 81.26480103 28.58006287 C81.26167121 32.64971344 81.24509066 36.71901215 81.21826172 40.78857422 C81.18425903 46.0133819 81.17663365 51.23780311 81.17815208 56.46270847 C81.17760911 60.47148856 81.16665393 64.48018361 81.1521492 68.48893547 C81.14577115 70.41591689 81.14183996 72.34290796 81.14036179 74.26989937 C81.13604071 76.95874689 81.11856639 79.6471788 81.09716797 82.3359375 C81.09807434 83.13754807 81.09898071 83.93915863 81.09991455 84.76506042 C81.03559701 90.2727526 81.03559701 90.2727526 78.80664062 92.50170898 C76.02162334 92.70558853 73.33563487 92.7848799 70.54907227 92.77636719 C69.26839119 92.78403358 69.26839119 92.78403358 67.96183777 92.79185486 C65.13008682 92.80579311 62.29857811 92.8047909 59.46679688 92.80249023 C57.50385955 92.80637489 55.54092306 92.81070908 53.57798767 92.81547546 C49.45959755 92.82294682 45.34129314 92.82263982 41.22290039 92.81738281 C35.9387095 92.81158752 30.65486905 92.82851623 25.37073612 92.85172749 C21.3156071 92.86644179 17.2605629 92.86733966 13.20541191 92.86421776 C11.25691471 92.86473215 9.3084129 92.86999187 7.35994148 92.88002968 C4.6375956 92.892332 1.91593794 92.88563988 -0.80639648 92.87402344 C-1.61533356 92.88166718 -2.42427063 92.88931091 -3.25772095 92.89718628 C-6.15756639 92.86976145 -8.57768508 92.8153409 -11.19229126 91.48342896 C-12.82013097 88.26094848 -12.61784088 84.95132268 -12.59741211 81.421875 C-12.60427536 80.59880859 -12.61113861 79.77574219 -12.61820984 78.92773438 C-12.63653028 76.2035198 -12.63263286 73.47987827 -12.62695312 70.75561523 C-12.63151254 68.86376253 -12.63681739 66.97191149 -12.64283752 65.08006287 C-12.65177902 61.11303992 -12.64933386 57.14621817 -12.6394043 53.17919922 C-12.62791551 48.0934274 -12.64811939 43.00834998 -12.67732143 37.92266941 C-12.69566123 34.01502565 -12.69539538 30.10754896 -12.68968391 26.19987297 C-12.68953041 24.3247677 -12.69559831 22.4496513 -12.70797539 20.57458687 C-12.7228412 17.95292651 -12.71224131 15.33255725 -12.69506836 12.7109375 C-12.70473633 11.93521896 -12.7144043 11.15950043 -12.72436523 10.36027527 C-12.67917628 7.06849265 -12.40656745 4.84998289 -10.67408752 2.01998901 C-7.18008849 -0.11844318 -3.97463088 -0.04963732 0 0 Z " fill="#FAFCFB" transform="translate(14.193359375,2.498291015625)"/>
<path d="M0 0 C0 2.31 0 4.62 0 7 C0.99 6.67 1.98 6.34 3 6 C3.33 4.02 3.66 2.04 4 0 C6.97 0 9.94 0 13 0 C10.99712919 6.93301435 10.99712919 6.93301435 8 9 C5.69011685 9.74386068 3.35684056 10.42190703 1 11 C1 11.66 1 12.32 1 13 C7.73611852 12.15350713 7.73611852 12.15350713 13 8.1875 C14.83430919 5.26406972 15.70020636 3.39766128 16 0 C16.99 0 17.98 0 19 0 C19 0.66 19 1.32 19 2 C19.99 2 20.98 2 22 2 C22.09964824 7.37104009 22.17183292 12.74152986 22.21972656 18.11328125 C22.23971364 19.93661892 22.26691286 21.75989356 22.30175781 23.58300781 C22.66163738 42.91065743 22.66163738 42.91065743 18 51 C17.60095459 51.7439502 17.20190918 52.48790039 16.79077148 53.25439453 C12.59185831 60.84941917 6.06356691 65.91687148 -2 69 C-6.66785399 70.22654901 -11.23107716 70.12753108 -16.01953125 70.09765625 C-17.30738777 70.09553383 -17.30738777 70.09553383 -18.6212616 70.09336853 C-21.35171049 70.08779057 -24.08207607 70.07524214 -26.8125 70.0625 C-28.6686186 70.05748215 -30.5247385 70.05291974 -32.38085938 70.04882812 C-36.9206048 70.03782836 -41.4602883 70.02057893 -46 70 C-46.33 69.01 -46.66 68.02 -47 67 C-47.66 66.67 -48.32 66.34 -49 66 C-48.29875 65.814375 -47.5975 65.62875 -46.875 65.4375 C-42.90359949 63.45179974 -40.6926582 60.46066724 -38 57 C-40.75072177 58.52817876 -42.95315792 59.95315792 -45.1875 62.1875 C-45.785625 62.785625 -46.38375 63.38375 -47 64 C-47.66 64 -48.32 64 -49 64 C-48.37267081 59.35776398 -48.37267081 59.35776398 -46.4375 57.5 C-44.71343023 56.02124974 -44.71343023 56.02124974 -44.8125 53.3125 C-44.874375 52.549375 -44.93625 51.78625 -45 51 C-46.32 50.34 -47.64 49.68 -49 49 C-49.77834109 21.57844479 -49.77834109 21.57844479 -40 10 C-28.65553729 -1.17031526 -14.87020882 -0.53840054 0 0 Z " fill="#1AC68A" transform="translate(64,16)"/>
<path d="M0 0 C1.23481865 -0.00810448 1.23481865 -0.00810448 2.49458313 -0.01637268 C5.21355226 -0.0288718 7.93146495 -0.01236149 10.65039062 0.00561523 C12.54081274 0.00546027 14.43123518 0.00397178 16.32165527 0.00120544 C20.2827764 -0.00017908 24.24353568 0.0123884 28.20458984 0.03515625 C33.28240962 0.06354101 38.3596281 0.06080426 43.43749237 0.04806614 C47.34085222 0.04111166 51.24407306 0.04889561 55.14741516 0.06132317 C57.01971402 0.06583991 58.89202779 0.06617252 60.764328 0.06225777 C63.38095702 0.05934781 65.99675699 0.07584188 68.61328125 0.09765625 C69.77450249 0.09090378 69.77450249 0.09090378 70.95918274 0.08401489 C73.97549002 0.1258033 76.48206869 0.37003386 79.2883606 1.5085144 C81.69051124 4.66205232 81.34591614 7.99525759 81.29248047 11.796875 C81.29627716 12.64266113 81.30007385 13.48844727 81.3039856 14.35986328 C81.31140228 17.15882307 81.2899951 19.95674754 81.26757812 22.75561523 C81.26519448 24.69709654 81.26428821 26.63858017 81.26480103 28.58006287 C81.26167121 32.64971344 81.24509066 36.71901215 81.21826172 40.78857422 C81.18425903 46.0133819 81.17663365 51.23780311 81.17815208 56.46270847 C81.17760911 60.47148856 81.16665393 64.48018361 81.1521492 68.48893547 C81.14577115 70.41591689 81.14183996 72.34290796 81.14036179 74.26989937 C81.13604071 76.95874689 81.11856639 79.6471788 81.09716797 82.3359375 C81.09807434 83.13754807 81.09898071 83.93915863 81.09991455 84.76506042 C81.03559701 90.2727526 81.03559701 90.2727526 78.80664062 92.50170898 C76.02162334 92.70558853 73.33563487 92.7848799 70.54907227 92.77636719 C69.26839119 92.78403358 69.26839119 92.78403358 67.96183777 92.79185486 C65.13008682 92.80579311 62.29857811 92.8047909 59.46679688 92.80249023 C57.50385955 92.80637489 55.54092306 92.81070908 53.57798767 92.81547546 C49.45959755 92.82294682 45.34129314 92.82263982 41.22290039 92.81738281 C35.9387095 92.81158752 30.65486905 92.82851623 25.37073612 92.85172749 C21.3156071 92.86644179 17.2605629 92.86733966 13.20541191 92.86421776 C11.25691471 92.86473215 9.3084129 92.86999187 7.35994148 92.88002968 C4.6375956 92.892332 1.91593794 92.88563988 -0.80639648 92.87402344 C-1.61533356 92.88166718 -2.42427063 92.88931091 -3.25772095 92.89718628 C-6.15756639 92.86976145 -8.57768508 92.8153409 -11.19229126 91.48342896 C-12.82013097 88.26094848 -12.61784088 84.95132268 -12.59741211 81.421875 C-12.60427536 80.59880859 -12.61113861 79.77574219 -12.61820984 78.92773438 C-12.63653028 76.2035198 -12.63263286 73.47987827 -12.62695312 70.75561523 C-12.63151254 68.86376253 -12.63681739 66.97191149 -12.64283752 65.08006287 C-12.65177902 61.11303992 -12.64933386 57.14621817 -12.6394043 53.17919922 C-12.62791551 48.0934274 -12.64811939 43.00834998 -12.67732143 37.92266941 C-12.69566123 34.01502565 -12.69539538 30.10754896 -12.68968391 26.19987297 C-12.68953041 24.3247677 -12.69559831 22.4496513 -12.70797539 20.57458687 C-12.7228412 17.95292651 -12.71224131 15.33255725 -12.69506836 12.7109375 C-12.70473633 11.93521896 -12.7144043 11.15950043 -12.72436523 10.36027527 C-12.67917628 7.06849265 -12.40656745 4.84998289 -10.67408752 2.01998901 C-7.18008849 -0.11844318 -3.97463088 -0.04963732 0 0 Z M-7.1396637 5.56015015 C-8.77619244 8.57564781 -8.61855416 11.59369593 -8.59741211 14.93896484 C-8.60427536 15.69375626 -8.61113861 16.44854767 -8.61820984 17.22621155 C-8.63652263 19.7231829 -8.63263403 22.21952859 -8.62695312 24.71655273 C-8.63151295 26.45146388 -8.63681792 28.18637321 -8.64283752 29.92127991 C-8.65177753 33.55875991 -8.64933565 37.19602046 -8.6394043 40.83349609 C-8.62791614 45.49555263 -8.64811884 50.15685157 -8.67732143 54.81880856 C-8.69566624 58.40219436 -8.69539439 61.98539807 -8.68968391 65.56881905 C-8.68953047 67.28762436 -8.69559364 69.00644184 -8.70797539 70.72520256 C-8.72285085 73.12897138 -8.71223496 75.53133385 -8.69506836 77.93505859 C-8.70473633 78.64532196 -8.7144043 79.35558533 -8.72436523 80.08737183 C-8.67689351 83.26112299 -8.35473476 85.24888745 -6.63491821 87.94326782 C-3.32820941 90.05393214 -0.42734245 90.05515146 3.37329102 90.00341797 C4.12983475 90.00882095 4.88637848 90.01422394 5.66584778 90.01979065 C8.16239744 90.0322813 10.65779472 90.01578724 13.15429688 89.99780273 C14.89017294 89.9979577 16.62604935 89.99944626 18.36192322 90.00221252 C21.99770424 90.00359661 25.63309081 89.99103586 29.26879883 89.96826172 C33.9319624 89.93985573 38.5944716 89.94261993 43.25768375 89.95535183 C46.84103498 89.96230184 50.42423458 89.95452788 54.00756645 89.9420948 C55.72718156 89.93757518 57.44681292 89.93724796 59.16642952 89.9411602 C61.567755 89.94406638 63.96817378 89.92759572 66.36938477 89.90576172 C67.08167236 89.91026337 67.79395996 89.91476501 68.52783203 89.91940308 C71.22574435 89.87858441 73.34906684 89.74857727 75.74720764 88.45474243 C77.4164995 85.37745214 77.22305543 82.2620075 77.19482422 78.84912109 C77.20008118 78.07160995 77.20533813 77.29409882 77.21075439 76.49302673 C77.22396495 73.9214981 77.21521368 71.35058772 77.20507812 68.77905273 C77.20709836 66.99451071 77.21000937 65.20996949 77.21377563 63.4254303 C77.21820024 59.68539571 77.21176283 55.94557603 77.19775391 52.20556641 C77.1806495 47.40442044 77.19051018 42.60377708 77.2084713 37.8026495 C77.21929494 34.11813039 77.21586957 30.4337311 77.20808792 26.74920845 C77.20608262 24.97852075 77.20855673 23.20782226 77.21552658 21.43714714 C77.22311923 18.9661042 77.21156891 16.49588378 77.19482422 14.02490234 C77.20089691 13.28874695 77.2069696 12.55259155 77.21322632 11.79412842 C77.22010587 9.54947381 77.22010587 9.54947381 76.80664062 6.50170898 C73.16470751 4.07375358 70.47122117 4.21263076 66.26171875 4.22705078 C65.11249184 4.21938438 65.11249184 4.21938438 63.94004822 4.21156311 C61.40591638 4.19765558 58.8720561 4.19862453 56.33789062 4.20092773 C54.57816466 4.19704182 52.81843963 4.19270737 51.05871582 4.1879425 C47.37000488 4.18047809 43.68138964 4.18077345 39.99267578 4.18603516 C35.26115237 4.19183422 30.53001985 4.17488946 25.7985611 4.15169048 C22.16462913 4.13697412 18.53079181 4.1360785 14.89683533 4.13920021 C13.15208664 4.13868608 11.40733278 4.1334311 9.66261292 4.12338829 C7.22533589 4.11107975 4.78882682 4.11778111 2.3515625 4.12939453 C1.26674843 4.11792892 1.26674843 4.11792892 0.16001892 4.10623169 C-2.57049112 4.13505405 -4.71518573 4.24166812 -7.1396637 5.56015015 Z " fill="#E0E0E0" transform="translate(14.193359375,2.498291015625)"/>
<path d="M0 0 C0.33 10.56 0.66 21.12 1 32 C2.32 32 3.64 32 5 32 C5.33 33.32 5.66 34.64 6 36 C6.99 34.02 7.98 32.04 9 30 C11.31 30.66 13.62 31.32 16 32 C16.33 31.01 16.66 30.02 17 29 C16.21625 28.855625 15.4325 28.71125 14.625 28.5625 C12 28 12 28 10 27 C10 26.34 10 25.68 10 25 C9.34 25 8.68 25 8 25 C6.64864865 18.73464373 6.64864865 18.73464373 8.375 15.125 C10 13 10 13 11 12 C13.31074168 11.90067608 15.62462942 11.87030382 17.9375 11.875 C19.20464844 11.87242188 20.47179687 11.86984375 21.77734375 11.8671875 C25 12 25 12 27 13 C26.125 17.75 26.125 17.75 25 20 C22.69 19.67 20.38 19.34 18 19 C17.67 19.66 17.34 20.32 17 21 C17.9075 21.2475 18.815 21.495 19.75 21.75 C23.19016768 23.07314142 24.76529862 24.10316488 27 27 C28.34550036 30.40860091 28.10516178 31.71772365 26.8125 35.1875 C24.28290909 39.11272727 24.28290909 39.11272727 21 40 C16.77607278 40.21119636 12.86786465 40.02259708 8.6875 39.4375 C5.06375867 38.7421932 5.06375867 38.7421932 2 40 C-4.18501086 40.56227371 -4.18501086 40.56227371 -7.19824219 38.48339844 C-9.68354361 35.05785832 -9.50333086 32.01988231 -9.390625 27.953125 C-9.38496521 27.18192322 -9.37930542 26.41072144 -9.37347412 25.6161499 C-9.35113589 23.16012721 -9.30094763 20.70557945 -9.25 18.25 C-9.22993154 16.58205237 -9.21168137 14.91408179 -9.1953125 13.24609375 C-9.15127992 9.16349677 -9.08227283 5.08199819 -9 1 C-5.72921858 0.03087958 -3.60964568 0 0 0 Z " fill="#FFFFFF" transform="translate(361,28)"/>
<path d="M0 0 C3.3 0 6.6 0 10 0 C10 4.29 10 8.58 10 13 C13.96 13 17.92 13 22 13 C22 8.71 22 4.42 22 0 C24.97 0 27.94 0 31 0 C31 11.88 31 23.76 31 36 C28.03 36 25.06 36 22 36 C22 31.05 22 26.1 22 21 C18.04 21 14.08 21 10 21 C10 25.95 10 30.9 10 36 C6.7 36 3.4 36 0 36 C0 24.12 0 12.24 0 0 Z " fill="#FFFFFF" transform="translate(113,31)"/>
<path d="M0 0 C2.05078125 0.03255208 4.1015625 0.06510417 6.15234375 0.09765625 C6.48234375 4.05765625 6.81234375 8.01765625 7.15234375 12.09765625 C9.65885417 12 12.16536458 11.90234375 14.671875 11.8046875 C17.15234375 12.09765625 17.15234375 12.09765625 18.9140625 13.421875 C21.19559268 16.50949786 21.27241301 19.2862277 21.25 22.984375 C21.24677734 23.92216797 21.24355469 24.85996094 21.24023438 25.82617188 C21.23185547 26.80263672 21.22347656 27.77910156 21.21484375 28.78515625 C21.21033203 29.77322266 21.20582031 30.76128906 21.20117188 31.77929688 C21.18938695 34.21877583 21.17145158 36.65822366 21.15234375 39.09765625 C17.85234375 39.09765625 14.55234375 39.09765625 11.15234375 39.09765625 C10.82234375 32.49765625 10.49234375 25.89765625 10.15234375 19.09765625 C6.94509178 22.19095377 6.94509178 22.19095377 6.640625 26.109375 C6.60517578 26.86669922 6.56972656 27.62402344 6.53320312 28.40429688 C6.49936523 29.58282227 6.49936523 29.58282227 6.46484375 30.78515625 C6.43068359 31.58244141 6.39652344 32.37972656 6.36132812 33.20117188 C6.27896271 35.16617529 6.21397308 37.13189321 6.15234375 39.09765625 C3.18234375 39.09765625 0.21234375 39.09765625 -2.84765625 39.09765625 C-2.87230474 33.70418637 -2.89049156 28.310749 -2.90258789 22.91723633 C-2.90762856 21.0809675 -2.91446102 19.24470271 -2.9230957 17.40844727 C-2.93517297 14.77489224 -2.94088706 12.14139009 -2.9453125 9.5078125 C-2.95047379 8.68177017 -2.95563507 7.85572784 -2.96095276 7.00465393 C-2.9611483 5.03529257 -2.90969777 3.06604011 -2.84765625 1.09765625 C-1.84765625 0.09765625 -1.84765625 0.09765625 0 0 Z " fill="#FFFFFF" transform="translate(253.84765625,27.90234375)"/>
<path d="M0 0 C0.70833984 -0.020625 1.41667969 -0.04125 2.14648438 -0.0625 C7.7650947 -0.10400405 11.89305607 1.07250047 16.1875 4.9375 C17.84638477 8.3474298 17.84726711 11.57256043 17.3125 15.25 C15.55336879 19.41636339 13.47886339 21.49086879 9.3125 23.25 C6.5905915 23.48272824 4.05390478 23.38939346 1.3125 23.25 C1.3125 27.87 1.3125 32.49 1.3125 37.25 C-1.9875 37.25 -5.2875 37.25 -8.6875 37.25 C-8.7121501 32.14136104 -8.73033607 27.03275641 -8.74243164 21.92407227 C-8.74747204 20.18480832 -8.7543043 18.44554864 -8.76293945 16.70629883 C-8.77501792 14.21174063 -8.78073108 11.71723827 -8.78515625 9.22265625 C-8.79031754 8.44036148 -8.79547882 7.65806671 -8.80079651 6.85206604 C-8.80099226 4.98432886 -8.74949694 3.11670796 -8.6875 1.25 C-6.66913658 -0.76836342 -2.75741767 0.01953883 0 0 Z M1.3125 7.25 C1.3125 10.55 1.3125 13.85 1.3125 17.25 C2.9625 16.92 4.6125 16.59 6.3125 16.25 C6.99743373 13.39221967 6.99743373 13.39221967 7.3125 10.25 C6.6525 9.26 5.9925 8.27 5.3125 7.25 C3.9925 7.25 2.6725 7.25 1.3125 7.25 Z " fill="#FFFFFF" transform="translate(302.6875,29.75)"/>
<path d="M0 0 C1.65 0 3.3 0 5 0 C5 2.97 5 5.94 5 9 C9.29 9 13.58 9 18 9 C18 6.03 18 3.06 18 0 C19.65 0 21.3 0 23 0 C23.00386719 1.39412109 23.00386719 1.39412109 23.0078125 2.81640625 C23.08882554 11.25054637 23.08882554 11.25054637 27.0625 18.375 C28.5165625 19.674375 28.5165625 19.674375 30 21 C33.28916575 20.21834965 33.28916575 20.21834965 35.3125 16.9375 C36.199375 15.968125 37.08625 14.99875 38 14 C39.98 14 41.96 14 44 14 C44 21.26 44 28.52 44 36 C42.35 36 40.7 36 39 36 C38.67 31.38 38.34 26.76 38 22 C37.05125 23.32 36.1025 24.64 35.125 26 C33.5078125 28.25 33.5078125 28.25 32 30 C31.34 30 30.68 30 30 30 C27.8328168 27.79913001 25.96277623 25.38946672 24 23 C23.67 27.29 23.34 31.58 23 36 C21.35 36 19.7 36 18 36 C18 28.74 18 21.48 18 14 C13.71 14 9.42 14 5 14 C5 16.64 5 19.28 5 22 C3.35 22 1.7 22 0 22 C0 14.74 0 7.48 0 0 Z " fill="#F9FDFB" transform="translate(27,31)"/>
<path d="M0 0 C2.97 0 5.94 0 9 0 C9.33 6.6 9.66 13.2 10 20 C10.99 20 11.98 20 13 20 C13.98142381 15.75266168 14.30920379 11.52675467 14.5625 7.1875 C14.60568359 6.49462891 14.64886719 5.80175781 14.69335938 5.08789062 C14.79861453 3.39211314 14.89972863 1.69607948 15 0 C17.97 0 20.94 0 24 0 C24.04898437 1.45792969 24.09796875 2.91585937 24.1484375 4.41796875 C24.22348903 6.3411642 24.29903583 8.26434038 24.375 10.1875 C24.4059375 11.14720703 24.436875 12.10691406 24.46875 13.09570312 C24.50742187 14.02705078 24.54609375 14.95839844 24.5859375 15.91796875 C24.63306885 17.19837036 24.63306885 17.19837036 24.68115234 18.50463867 C25.03349578 21.26214422 25.87071247 23.46999969 27 26 C21.62694301 27.67357513 21.62694301 27.67357513 19 28 C17 26.625 17 26.625 16 25 C15.29875 25.495 14.5975 25.99 13.875 26.5 C10.50604479 28.25771576 8.74917903 28.54675527 5 28 C2.33203125 26.73828125 2.33203125 26.73828125 0 24 C-0.63655975 19.90578106 -0.46823724 15.88063087 -0.3125 11.75 C-0.28994141 10.62335937 -0.26738281 9.49671875 -0.24414062 8.3359375 C-0.18524254 5.55594768 -0.10304201 2.77864668 0 0 Z " fill="#FFFFFF" transform="translate(322,40)"/>
<path d="M0 0 C2.33367305 1.86693844 3.34702517 2.89238559 4.1875 5.75 C4.09751897 9.25926033 3.28742931 10.62655791 1.0625 13.375 C-2.18334627 16.05635126 -4.89248682 17.28960293 -8.8125 18.75 C-4.83053543 19.80404945 -1.83054691 19.59098656 2.1875 18.75 C2.5175 21.06 2.8475 23.37 3.1875 25.75 C-1.81590979 27.80268094 -6.46770828 28.54359162 -11.8125 27.75 C-15.6151029 25.7449912 -17.43040841 24.32313738 -19.8125 20.75 C-20.48247877 14.91495231 -20.60728395 9.52297958 -18.1875 4.125 C-12.93745766 -1.12504234 -7.02639024 -3.12284011 0 0 Z M-8.8125 5.75 C-9.4725 7.73 -10.1325 9.71 -10.8125 11.75 C-9.4925 11.42 -8.1725 11.09 -6.8125 10.75 C-6.4825 9.1 -6.1525 7.45 -5.8125 5.75 C-6.8025 5.75 -7.7925 5.75 -8.8125 5.75 Z " fill="#FFFFFF" transform="translate(410.8125,40.25)"/>
<path d="M0 0 C0 0.66 0 1.32 0 2 C0.66 2 1.32 2 2 2 C3.33998624 8.21266345 3.33998624 8.21266345 1.8125 11.75 C-1.58584044 15.96862952 -4.82567758 17.47122292 -10 19 C-6.01803543 20.05404945 -3.01804691 19.84098656 1 19 C1.33 21.31 1.66 23.62 2 26 C-3.00898627 28.05496872 -7.65021413 28.78476286 -13 28 C-17.08155465 25.92211763 -19.3370277 24.24813834 -21 20 C-21.71784252 13.82841882 -21.66083424 8.2297632 -18 3 C-12.85781529 -1.66010489 -6.51649065 -2.08527701 0 0 Z M-10 6 C-10.66 7.98 -11.32 9.96 -12 12 C-10.35 11.34 -8.7 10.68 -7 10 C-7 8.68 -7 7.36 -7 6 C-7.99 6 -8.98 6 -10 6 Z " fill="#FFFFFF" transform="translate(222,40)"/>
<path d="M0 0 C8.91 0 17.82 0 27 0 C27 1.98 27 3.96 27 6 C24.03 6 21.06 6 18 6 C18 15.9 18 25.8 18 36 C14.7 36 11.4 36 8 36 C8 26.1 8 16.2 8 6 C5.36 6 2.72 6 0 6 C0 4.02 0 2.04 0 0 Z " fill="#FFFFFF" transform="translate(177,31)"/>
<path d="M0 0 C0.495 0.99 0.495 0.99 1 2 C1.99 2 2.98 2 4 2 C4.09964824 7.37104009 4.17183292 12.74152986 4.21972656 18.11328125 C4.23971364 19.93661892 4.26691286 21.75989356 4.30175781 23.58300781 C4.66163738 42.91065743 4.66163738 42.91065743 0 51 C-0.39904541 51.7439502 -0.79809082 52.48790039 -1.20922852 53.25439453 C-5.40814169 60.84941917 -11.93643309 65.91687148 -20 69 C-24.66785399 70.22654901 -29.23107716 70.12753108 -34.01953125 70.09765625 C-35.30738777 70.09553383 -35.30738777 70.09553383 -36.6212616 70.09336853 C-39.35171049 70.08779057 -42.08207607 70.07524214 -44.8125 70.0625 C-46.6686186 70.05748215 -48.5247385 70.05291974 -50.38085938 70.04882812 C-54.9206048 70.03782836 -59.4602883 70.02057893 -64 70 C-64.33 69.01 -64.66 68.02 -65 67 C-63.26713745 66.970271 -63.26713745 66.970271 -61.49926758 66.93994141 C-57.20331439 66.86373059 -52.90769308 66.77503711 -48.61206055 66.68261719 C-46.75470544 66.64439134 -44.89727792 66.60952737 -43.03979492 66.578125 C-40.36611088 66.53233539 -37.69292258 66.47436421 -35.01953125 66.4140625 C-33.7786248 66.39673569 -33.7786248 66.39673569 -32.51264954 66.37905884 C-28.17495761 66.26862176 -25.01093059 65.7871148 -21 64 C-19.68 64 -18.36 64 -17 64 C-17 63.34 -17 62.68 -17 62 C-16.01 62 -15.02 62 -14 62 C-14 61.34 -14 60.68 -14 60 C-13.38125 59.9175 -12.7625 59.835 -12.125 59.75 C-9.85624577 59.21649509 -9.85624577 59.21649509 -9.0234375 57.1953125 C-8.68570313 56.47085938 -8.34796875 55.74640625 -8 55 C-6.76617388 53.04644198 -5.49679521 51.12017327 -4.21875 49.1953125 C-0.98755988 43.37502774 -0.67256338 37.93862808 -0.5859375 31.4453125 C-0.56657135 30.54376434 -0.5472052 29.64221619 -0.5272522 28.71334839 C-0.46775704 25.85066004 -0.42119183 22.98793082 -0.375 20.125 C-0.33679253 18.17706637 -0.2977392 16.22914914 -0.2578125 14.28125 C-0.16208035 9.52096742 -0.07793884 4.7606058 0 0 Z " fill="#8E9291" transform="translate(82,16)"/>
<path d="M0 0 C1.16402344 0.08314453 1.16402344 0.08314453 2.3515625 0.16796875 C4.375 0.8125 4.375 0.8125 5.6484375 2.86328125 C5.88820312 3.50652344 6.12796875 4.14976563 6.375 4.8125 C4.125 6.875 4.125 6.875 1.375 8.8125 C-0.9375 8.5625 -0.9375 8.5625 -2.625 7.8125 C-5.45522097 11.80810608 -4.38710446 15.23987323 -3.625 19.8125 C-0.64258453 20.58571882 2.35080475 21.22446203 5.375 21.8125 C5.705 23.4625 6.035 25.1125 6.375 26.8125 C2.02945953 29.27038488 -1.72393977 29.48469402 -6.625 28.8125 C-10.66491934 26.94216697 -12.25288781 25.42468456 -14.5625 21.625 C-16.14668688 15.94056471 -15.80105883 11.2715321 -13.25 5.9375 C-9.33605732 0.81926727 -6.52999135 -0.57874505 0 0 Z " fill="#FFFFFF" transform="translate(241.625,39.1875)"/>
<path d="M0 0 C3.3 0 6.6 0 10 0 C10 6.93 10 13.86 10 21 C10.99 21 11.98 21 13 21 C13 22.98 13 24.96 13 27 C9.61001614 28.69499193 6.24134921 28.40259974 2.6875 27.25 C0.48522769 25.61868718 0.47586627 24.66902693 0 22 C-0.07952806 20.26714352 -0.10774143 18.53152614 -0.09765625 16.796875 C-0.09443359 15.8171875 -0.09121094 14.8375 -0.08789062 13.828125 C-0.07951172 12.81234375 -0.07113281 11.7965625 -0.0625 10.75 C-0.05798828 9.71875 -0.05347656 8.6875 -0.04882812 7.625 C-0.03706103 5.08330846 -0.0191261 2.54164682 0 0 Z " fill="#FFFFFF" transform="translate(149,40)"/>
<path d="M0 0 C0.33 0.66 0.66 1.32 1 2 C1.99 2 2.98 2 4 2 C4.09964824 7.37104009 4.17183292 12.74152986 4.21972656 18.11328125 C4.23971364 19.93661892 4.26691286 21.75989356 4.30175781 23.58300781 C4.6638862 43.03143232 4.6638862 43.03143232 0 51 C-1.23020843 48.53958313 -1.085134 47.02247347 -1.02172852 44.27490234 C-1.00163223 43.29403656 -0.98153595 42.31317078 -0.96083069 41.30258179 C-0.93379562 40.24108917 -0.90676056 39.17959656 -0.87890625 38.0859375 C-0.85529526 37.00116119 -0.83168427 35.91638489 -0.80735779 34.79873657 C-0.7306057 31.32402838 -0.64663096 27.84953662 -0.5625 24.375 C-0.50929088 22.02344819 -0.45655042 19.67188573 -0.40429688 17.3203125 C-0.27497497 11.54674023 -0.1397181 5.77332952 0 0 Z " fill="#A5B2AD" transform="translate(82,16)"/>
<path d="M0 0 C-0.66 1.32 -1.32 2.64 -2 4 C-14.87 4 -27.74 4 -41 4 C-41.33 3.01 -41.66 2.02 -42 1 C-36.50074504 0.85709311 -31.00147738 0.7146895 -25.50219727 0.57275391 C-23.63109992 0.52439004 -21.76000614 0.47588823 -19.88891602 0.42724609 C-17.20069283 0.35738508 -14.51245726 0.28801886 -11.82421875 0.21875 C-10.98662521 0.19687622 -10.14903168 0.17500244 -9.28605652 0.15246582 C-6.18981158 0.07305188 -3.09740959 0 0 0 Z " fill="#898989" transform="translate(59,82)"/>
<path d="M0 0 C5.28 0 10.56 0 16 0 C16 1.98 16 3.96 16 6 C10.72 6 5.44 6 0 6 C0 4.02 0 2.04 0 0 Z " fill="#FFFFFF" transform="translate(164,47)"/>
<path d="M0 0 C3 0.25 3 0.25 5 2.25 C5.25 5.25 5.25 5.25 5 8.25 C3 10.25 3 10.25 0 10.5 C-3 10.25 -3 10.25 -5 8.25 C-5.25 5.25 -5.25 5.25 -5 2.25 C-3 0.25 -3 0.25 0 0 Z " fill="#FFFFFF" transform="translate(154,26.75)"/>
<path d="M0 0 C0.66 0.33 1.32 0.66 2 1 C-4.17468886 6.03122796 -9.416355 6.2801392 -17.11328125 6.1953125 C-18.08283249 6.1924826 -19.05238373 6.18965271 -20.05131531 6.18673706 C-23.13850405 6.17556991 -26.22539939 6.15047152 -29.3125 6.125 C-31.40950101 6.11496573 -33.50650658 6.10584066 -35.60351562 6.09765625 C-40.7357896 6.07564188 -45.8678451 6.04113571 -51 6 C-51.33 4.68 -51.66 3.36 -52 2 C-51.34 2.66 -50.68 3.32 -50 4 C-47.14041855 4.2002217 -44.37989799 4.27973337 -41.51953125 4.265625 C-40.67331711 4.26753845 -39.82710297 4.2694519 -38.95524597 4.27142334 C-37.16050927 4.27278616 -35.36576276 4.269083 -33.57104492 4.26074219 C-30.84075326 4.25011002 -28.11112958 4.26059963 -25.38085938 4.2734375 C-23.63541523 4.27211462 -21.88997149 4.26954959 -20.14453125 4.265625 C-19.33385696 4.26967346 -18.52318268 4.27372192 -17.6879425 4.27789307 C-11.87764414 4.23055681 -6.93054892 3.50487647 -1.6875 0.8125 C-1.130625 0.544375 -0.57375 0.27625 0 0 Z " fill="#C3C3C3" transform="translate(68,81)"/>
<path d="M0 0 C0.66 0.33 1.32 0.66 2 1 C-2.22385456 4.44165927 -5.50060584 6 -11 6 C-11 5.34 -11 4.68 -11 4 C-9.39125 3.566875 -9.39125 3.566875 -7.75 3.125 C-4.16546862 2.17357654 -4.16546862 2.17357654 -1.6875 0.8125 C-1.130625 0.544375 -0.57375 0.27625 0 0 Z " fill="#CFCFCF" transform="translate(68,81)"/>
<path d="M0 0 C0.99 0 1.98 0 3 0 C2.25 1.9375 2.25 1.9375 1 4 C-1.125 4.75 -1.125 4.75 -3 5 C-1.125 1.125 -1.125 1.125 0 0 Z " fill="#DAF6EF" transform="translate(29,67)"/>
</svg>
